# xmcd
#
# Track frame offsets:
#	150
#	15305
#	27755
#	40564
#	51200
#	62365
#	76645
#	89715
#	103195
#	116250
#
# Disc length: 1753 seconds
#
# Revision: 1
# Processed by: cddbd v1.5.2PL0 Copyright (c) Steve Scherf et al.
# Submitted via: audiograbber 1.83.01
#
DISCID=6706d70a
DTITLE=mel tillis - coca cola cowboy
DYEAR=1900
DGENRE=Country
TTITLE0=Coca Cola Cowboy
TTITLE1=Steppin' Out
TTITLE2=Please Don't Hang Up The Phone
TTITLE3=I'm Tired
TTITLE4=Stranger
TTITLE5=Tall Drink Of Water
TTITLE6=Memory Maker
TTITLE7=No One To Talk To
TTITLE8=We Still Shoot Horse Thieves In Texas
TTITLE9=A Cowboy's Dream
EXTD=
EXTT0=
EXTT1=
EXTT2=
EXTT3=
EXTT4=
EXTT5=
EXTT6=
EXTT7=
EXTT8=
EXTT9=
PLAYORDER=
